<mxfile host="app.diagrams.net" modified="2022-02-08T20:30:56.070Z" agent="5.0 (Windows)" etag="62pLSLQuri05QbMUVUPW" version="16.5.3" type="github">
  <diagram id="0L8sBnTHJ4dPm0iQ3iVH" name="Page-1">
    <mxGraphModel dx="974" dy="540" grid="1" gridSize="10" guides="1" tooltips="1" connect="1" arrows="1" fold="1" page="1" pageScale="1" pageWidth="850" pageHeight="1100" math="0" shadow="0">
      <root>
        <mxCell id="0" />
        <mxCell id="1" parent="0" />
        <mxCell id="OyhZBPzxjPlO9sozCY8G-1" value="" style="rounded=0;whiteSpace=wrap;html=1;" vertex="1" parent="1">
          <mxGeometry x="40" y="40" width="800" height="590" as="geometry" />
        </mxCell>
        <mxCell id="OyhZBPzxjPlO9sozCY8G-2" value="" style="rounded=0;whiteSpace=wrap;html=1;" vertex="1" parent="1">
          <mxGeometry x="70" y="120" width="370" height="350" as="geometry" />
        </mxCell>
        <mxCell id="OyhZBPzxjPlO9sozCY8G-3" value="Overview" style="text;html=1;strokeColor=none;fillColor=none;align=left;verticalAlign=middle;whiteSpace=wrap;rounded=0;" vertex="1" parent="1">
          <mxGeometry x="70" y="70" width="200" height="30" as="geometry" />
        </mxCell>
        <mxCell id="OyhZBPzxjPlO9sozCY8G-4" value="Facilities" style="text;html=1;strokeColor=none;fillColor=none;align=left;verticalAlign=middle;whiteSpace=wrap;rounded=0;" vertex="1" parent="1">
          <mxGeometry x="80" y="130" width="380" height="30" as="geometry" />
        </mxCell>
        <mxCell id="OyhZBPzxjPlO9sozCY8G-5" value="" style="rounded=0;whiteSpace=wrap;html=1;" vertex="1" parent="1">
          <mxGeometry x="450" y="120" width="370" height="350" as="geometry" />
        </mxCell>
        <mxCell id="OyhZBPzxjPlO9sozCY8G-6" value="Roles" style="text;html=1;strokeColor=none;fillColor=none;align=left;verticalAlign=middle;whiteSpace=wrap;rounded=0;" vertex="1" parent="1">
          <mxGeometry x="460" y="130" width="380" height="30" as="geometry" />
        </mxCell>
        <mxCell id="OyhZBPzxjPlO9sozCY8G-7" value="Description of facilities" style="text;html=1;strokeColor=none;fillColor=none;align=left;verticalAlign=top;whiteSpace=wrap;rounded=0;labelPosition=center;verticalLabelPosition=middle;horizontal=1;" vertex="1" parent="1">
          <mxGeometry x="80" y="170" width="350" height="230" as="geometry" />
        </mxCell>
        <mxCell id="OyhZBPzxjPlO9sozCY8G-8" value="Description of roles" style="text;html=1;strokeColor=none;fillColor=none;align=left;verticalAlign=top;whiteSpace=wrap;rounded=0;labelPosition=center;verticalLabelPosition=middle;horizontal=1;" vertex="1" parent="1">
          <mxGeometry x="460" y="170" width="350" height="230" as="geometry" />
        </mxCell>
        <mxCell id="OyhZBPzxjPlO9sozCY8G-9" value="" style="rounded=0;whiteSpace=wrap;html=1;" vertex="1" parent="1">
          <mxGeometry x="40" y="650" width="800" height="590" as="geometry" />
        </mxCell>
        <mxCell id="OyhZBPzxjPlO9sozCY8G-10" value="" style="rounded=0;whiteSpace=wrap;html=1;" vertex="1" parent="1">
          <mxGeometry x="40" y="650" width="230" height="590" as="geometry" />
        </mxCell>
        <mxCell id="OyhZBPzxjPlO9sozCY8G-11" value="Facilities" style="text;html=1;strokeColor=#82b366;fillColor=#d5e8d4;align=left;verticalAlign=middle;whiteSpace=wrap;rounded=0;" vertex="1" parent="1">
          <mxGeometry x="60" y="670" width="190" height="30" as="geometry" />
        </mxCell>
        <mxCell id="OyhZBPzxjPlO9sozCY8G-12" value="Roles" style="text;html=1;strokeColor=none;fillColor=none;align=left;verticalAlign=middle;whiteSpace=wrap;rounded=0;" vertex="1" parent="1">
          <mxGeometry x="60" y="710" width="190" height="30" as="geometry" />
        </mxCell>
        <mxCell id="OyhZBPzxjPlO9sozCY8G-15" value="&lt;div&gt;Facility 1&lt;/div&gt;&lt;div&gt;&lt;br&gt;&lt;/div&gt;&lt;div&gt;Name: &lt;br&gt;&lt;/div&gt;&lt;div&gt;&lt;br&gt;&lt;/div&gt;&lt;div&gt;Number of Beds:&lt;/div&gt;&lt;div&gt;&lt;br&gt;&lt;/div&gt;&lt;div&gt;Location:&lt;/div&gt;&lt;div&gt;&lt;br&gt;&lt;/div&gt;&lt;div&gt;Description: &lt;br&gt;&lt;/div&gt;" style="text;html=1;strokeColor=none;fillColor=none;align=left;verticalAlign=top;whiteSpace=wrap;rounded=0;" vertex="1" parent="1">
          <mxGeometry x="290" y="670" width="530" height="200" as="geometry" />
        </mxCell>
        <mxCell id="OyhZBPzxjPlO9sozCY8G-16" value="&lt;div&gt;Facility 2&lt;br&gt;&lt;/div&gt;&lt;div&gt;&lt;br&gt;&lt;/div&gt;&lt;div&gt;Name: &lt;br&gt;&lt;/div&gt;&lt;div&gt;&lt;br&gt;&lt;/div&gt;&lt;div&gt;Number of Beds:&lt;/div&gt;&lt;div&gt;&lt;br&gt;&lt;/div&gt;&lt;div&gt;Location:&lt;/div&gt;&lt;div&gt;&lt;br&gt;&lt;/div&gt;&lt;div&gt;Description: &lt;br&gt;&lt;/div&gt;" style="text;html=1;strokeColor=none;fillColor=none;align=left;verticalAlign=top;whiteSpace=wrap;rounded=0;" vertex="1" parent="1">
          <mxGeometry x="290" y="910" width="530" height="200" as="geometry" />
        </mxCell>
      </root>
    </mxGraphModel>
  </diagram>
</mxfile>
